<svg xmlns="http://www.w3.org/2000/svg" xmlns:xlink="http://www.w3.org/1999/xlink" viewBox="0 0 81.69 51"><defs><style>.a{fill:#414042;}.b{fill:url(#a);}.c{fill:#f8991d;}.d{fill:#cb2026;}.e{fill:#fcb342;}.f{fill:#222160;}.g{fill:#fff;}</style><linearGradient id="a" x1="8.53" y1="4.56" x2="73.66" y2="46.85" gradientUnits="userSpaceOnUse"><stop offset="0" stop-color="#c2d1de"/><stop offset="0.26" stop-color="#81b4d4"/><stop offset="0.53" stop-color="#4479a9"/><stop offset="0.82" stop-color="#005a93"/><stop offset="1" stop-color="#004777"/></linearGradient></defs><title>Mastercard_shadow</title><rect class="a" x="1.02" y="1" width="80.67" height="50" rx="11" ry="11"/><rect class="b" width="80.02" height="50" rx="11" ry="11"/><path class="c" d="M71.54,24.5a18.49,18.49,0,0,1-37,0h0a18.49,18.49,0,1,1,37,0Z"/><path class="d" d="M28.11,6A18.49,18.49,0,1,0,40.68,38.17h0a18.67,18.67,0,0,0,1.88-2H38.77a18.06,18.06,0,0,1-1.38-1.91h6.53a18.52,18.52,0,0,0,1.08-2H36.31a18.24,18.24,0,0,1-.77-1.94H45.78a18.58,18.58,0,0,0,.53-9.83H35a18.44,18.44,0,0,1,.53-1.94H45.77a18.5,18.5,0,0,0-.8-2H36.31a17.74,17.74,0,0,1,1.06-1.94H43.9a18.53,18.53,0,0,0-1.44-2H38.83a17.16,17.16,0,0,1,1.86-1.87A18.43,18.43,0,0,0,28.23,6Z"/><path class="e" d="M69.68,34.17a.61.61,0,0,1,.29.08.55.55,0,0,1,.22.22.6.6,0,0,1,0,.6.56.56,0,0,1-.22.22.6.6,0,0,1-.59,0,.57.57,0,0,1-.22-.22.6.6,0,0,1,0-.6.56.56,0,0,1,.22-.22.62.62,0,0,1,.29-.08m0,.1a.51.51,0,0,0-.25.06.46.46,0,0,0-.19.19.5.5,0,0,0-.07.25.51.51,0,0,0,.07.25.48.48,0,0,0,.19.18.5.5,0,0,0,.5,0,.47.47,0,0,0,.18-.18.51.51,0,0,0,.07-.25.5.5,0,0,0-.07-.25.45.45,0,0,0-.19-.19.5.5,0,0,0-.24-.06m-.26.83v-.64h.22l.16,0a.16.16,0,0,1,.08.06.17.17,0,0,1,0,.09.17.17,0,0,1-.05.12.2.2,0,0,1-.13.06l.06,0,.09.13.08.13h-.13l-.06-.1a.52.52,0,0,0-.11-.15l-.08,0h-.06v.27h-.1m.1-.36h.13a.2.2,0,0,0,.12,0,.09.09,0,0,0,0-.07.08.08,0,0,0,0-.05l0,0h-.22v.19"/><path class="f" d="M34.37,29.81l.25-1.67c-.13,0-.33.06-.51.06-.69,0-.77-.37-.72-.63l.68-3.37h1l.21-1.9h-1l.2-1.15H32.49s-1.16,6.48-1.16,7.26a1.46,1.46,0,0,0,1.57,1.67A5.17,5.17,0,0,0,34.37,29.81Z"/><path class="f" d="M35,26.61a3.09,3.09,0,0,0,3.4,3.44,5.92,5.92,0,0,0,2.2-.33l.35-1.9a7.13,7.13,0,0,1-2.21.5c-2.11,0-1.74-1.58-1.74-1.58h4.06a14.14,14.14,0,0,0,.26-1.8,2.7,2.7,0,0,0-2.87-2.89C36.46,22.07,35,24.2,35,26.61Zm3.45-2.78c1.11,0,.91,1.25.91,1.35H37.17C37.17,25.05,37.37,23.83,38.45,23.83Z"/><path class="f" d="M50.92,29.8l.35-2.15a4.74,4.74,0,0,1-1.63.48,2,2,0,0,1-2-2.21c0-2.32,1.2-3.6,2.54-3.6a3.51,3.51,0,0,1,1.81.56l.32-2.09a3.92,3.92,0,0,0-2-.69c-3.08,0-4.84,2.13-4.84,5.84,0,2.46,1.3,4.13,3.65,4.13A9.11,9.11,0,0,0,50.92,29.8Z"/><path class="f" d="M23.54,22.1a6.8,6.8,0,0,0-2.39.43l-.29,1.7A6.22,6.22,0,0,1,23,23.88c.73,0,1.27.08,1.27.68a1.26,1.26,0,0,1-.07.5s-.58,0-.85,0c-1.92,0-3.49.73-3.49,2.92A1.87,1.87,0,0,0,21.78,30a2.43,2.43,0,0,0,2-.88l0,.73h1.73l.77-5.42C26.24,22.17,24.24,22.1,23.54,22.1Zm.3,4.4c0,.33-.09,1.9-1.27,1.9a.72.72,0,0,1-.77-.74c0-.54.29-1.19,1.74-1.19C23.87,26.47,23.78,26.49,23.84,26.5Z"/><path class="f" d="M28.09,30c.44,0,3,.11,3-2.5,0-2.45-2.35-2-2.35-2.95,0-.49.38-.64,1.08-.64.28,0,1.35.09,1.35.09l.25-1.74a9.19,9.19,0,0,0-1.82-.15c-1.46,0-2.94.58-2.94,2.57,0,2.25,2.47,2,2.47,3,0,.63-.69.69-1.22.69a6.44,6.44,0,0,1-1.75-.3l-.26,1.72A6.27,6.27,0,0,0,28.09,30Z"/><path class="f" d="M67.16,20.52l-.36,2.65a2.6,2.6,0,0,0-1.9-1c-2.18,0-3.31,2.18-3.31,4.67,0,1.61.8,3.2,2.44,3.2a2.46,2.46,0,0,0,1.83-.82l-.09.7H67.7l1.5-9.36Zm-.85,5.16c0,1-.52,2.43-1.58,2.43-.71,0-1-.6-1-1.53,0-1.53.69-2.53,1.55-2.53C66,24,66.31,24.53,66.31,25.68Z"/><path class="f" d="M12.88,29.91l1.2-7.07.18,7.07h1.36l2.53-7.07L17,29.91h2l1.55-9.38-3.2,0-1.9,5.74-.05-5.72H12.49l-1.57,9.38h2Z"/><path class="f" d="M43.22,29.92c.57-3.26.78-5.83,2.45-5.3a11.36,11.36,0,0,1,1.07-2.89s-.08-.12-.6-.12c-.88,0-2.06,1.79-2.06,1.79l.18-1.11H42.42L41.2,29.92h2Z"/><path class="f" d="M55,22.1a6.8,6.8,0,0,0-2.39.43l-.29,1.7a6.22,6.22,0,0,1,2.15-.35c.73,0,1.27.08,1.27.68a1.27,1.27,0,0,1-.07.5s-.58,0-.85,0c-1.92,0-3.49.73-3.49,2.92A1.87,1.87,0,0,0,53.28,30a2.43,2.43,0,0,0,2-.88l0,.73H57l.77-5.42C57.75,22.17,55.74,22.1,55,22.1Zm.3,4.4c0,.33-.09,1.9-1.27,1.9a.72.72,0,0,1-.77-.74c0-.54.29-1.19,1.74-1.19C55.37,26.47,55.29,26.49,55.34,26.5Z"/><path class="f" d="M59.74,29.92c.31-2.4.9-5.76,2.45-5.3.24-1.26,0-1.26-.51-1.26a9.2,9.2,0,0,0-1.08,0l.18-1.11H58.95l-1.23,7.63h2Z"/><path class="g" d="M34.88,29.21l.25-1.67c-.13,0-.33.06-.51.06-.69,0-.76-.36-.72-.63l.55-3.42h1l.25-1.85h-1l.2-1.15H33S31.84,27,31.84,27.8a1.46,1.46,0,0,0,1.57,1.67A5.18,5.18,0,0,0,34.88,29.21Z"/><path class="g" d="M35.51,26a3.09,3.09,0,0,0,3.4,3.44A5,5,0,0,0,41,29.14l.35-1.9a6.13,6.13,0,0,1-2.09.48c-2.11,0-1.74-1.58-1.74-1.58h4a14.16,14.16,0,0,0,.26-1.8A2.64,2.64,0,0,0,39,21.47C37,21.47,35.51,23.61,35.51,26ZM39,23.24c1.11,0,.91,1.25.91,1.35H37.68C37.68,24.46,37.89,23.24,39,23.24Z"/><path class="g" d="M51.43,29.21l.35-2.15a4.74,4.74,0,0,1-1.63.48,2,2,0,0,1-2-2.21c0-2.32,1.2-3.6,2.54-3.6a3.51,3.51,0,0,1,1.81.56l.32-2.09a7.07,7.07,0,0,0-2.22-.48c-2.27,0-4.48,2-4.48,5.68,0,2.46,1.19,4.08,3.54,4.08A9.08,9.08,0,0,0,51.43,29.21Z"/><path class="g" d="M24.05,21.5a6.8,6.8,0,0,0-2.39.43l-.29,1.7a6.22,6.22,0,0,1,2.15-.35c.73,0,1.27.08,1.27.68a1.26,1.26,0,0,1-.07.5s-.58,0-.85,0c-1.7,0-3.49.73-3.49,2.92a1.87,1.87,0,0,0,1.9,2.12,2.56,2.56,0,0,0,2-.9l-.06.75H26l.77-5.42C26.76,21.58,24.75,21.5,24.05,21.5Zm.42,4.42c0,.33-.21,1.88-1.39,1.88a.72.72,0,0,1-.77-.74c0-.54.29-1.19,1.74-1.19A1.25,1.25,0,0,1,24.48,25.92Z"/><path class="g" d="M28.6,29.41c.44,0,3,.11,3-2.5,0-2.45-2.35-2-2.35-2.95,0-.49.38-.64,1.08-.64.28,0,1.35.09,1.35.09l.25-1.74a9.19,9.19,0,0,0-1.82-.15c-1.46,0-2.94.58-2.94,2.57,0,2.25,2.47,2,2.47,3,0,.63-.69.69-1.22.69a6.43,6.43,0,0,1-1.75-.3l-.26,1.72A6.25,6.25,0,0,0,28.6,29.41Z"/><path class="g" d="M67.74,19.94l-.42,2.64a2.6,2.6,0,0,0-1.9-1c-1.8,0-3.31,2.18-3.31,4.67,0,1.61.8,3.19,2.44,3.19a2.46,2.46,0,0,0,1.83-.82l-.09.7h1.92l1.5-9.36Zm-.91,5.14c0,1-.51,2.43-1.58,2.43-.71,0-1-.59-1-1.53,0-1.53.69-2.53,1.55-2.53C66.46,23.45,66.83,23.93,66.83,25.08Z"/><path class="g" d="M13.39,29.31l1.2-7.07.18,7.07h1.36l2.53-7.07-1.12,7.07h2l1.55-9.38H18L16,25.69l-.1-5.75H13.07l-1.57,9.38Z"/><path class="g" d="M43.73,29.32c.57-3.26.68-5.91,2-5.42a7.58,7.58,0,0,1,.73-2.28,2.08,2.08,0,0,0-.38,0c-.88,0-1.54,1.2-1.54,1.2l.18-1.11H42.94l-1.23,7.63Z"/><path class="g" d="M56,21.5a6.8,6.8,0,0,0-2.39.43l-.29,1.7a6.22,6.22,0,0,1,2.15-.35c.73,0,1.27.08,1.27.68a1.27,1.27,0,0,1-.07.5s-.58,0-.85,0c-1.7,0-3.49.73-3.49,2.92a1.87,1.87,0,0,0,1.9,2.12,2.56,2.56,0,0,0,2-.9l-.06.75h1.73l.77-5.42C58.68,21.58,56.67,21.5,56,21.5Zm.42,4.42c0,.33-.21,1.88-1.39,1.88a.72.72,0,0,1-.77-.74c0-.54.29-1.19,1.74-1.19A1.26,1.26,0,0,1,56.4,25.92Z"/><path class="g" d="M60.26,29.32c.57-3.26.68-5.91,2-5.42A7.59,7.59,0,0,1,63,21.62a2.08,2.08,0,0,0-.38,0c-.88,0-1.54,1.2-1.54,1.2l.18-1.11H59.47l-1.23,7.63Z"/><path class="g" d="M69.67,28.15a.6.6,0,0,1,.29.08.54.54,0,0,1,.22.22.6.6,0,0,1,0,.6.55.55,0,0,1-.22.22.6.6,0,0,1-.6,0,.56.56,0,0,1-.22-.22.6.6,0,0,1,0-.6.55.55,0,0,1,.22-.22.61.61,0,0,1,.29-.08m0,.1a.51.51,0,0,0-.25.07.46.46,0,0,0-.19.18.5.5,0,0,0,0,.5.48.48,0,0,0,.19.18.5.5,0,0,0,.5,0,.47.47,0,0,0,.18-.18.5.5,0,0,0,0-.5.45.45,0,0,0-.19-.18.5.5,0,0,0-.24-.07m-.26.83v-.64h.22l.16,0a.16.16,0,0,1,.08.06.16.16,0,0,1,0,.09.17.17,0,0,1-.05.12.19.19,0,0,1-.13.06l.05,0,.09.13.08.13h-.13l-.06-.1a.52.52,0,0,0-.11-.15l-.08,0h-.06v.27h-.1m.1-.36h.13a.2.2,0,0,0,.12,0,.09.09,0,0,0,0-.07.08.08,0,0,0,0-.05l0,0h-.22v.19"/></svg>